<svg xmlns="http://www.w3.org/2000/svg" viewBox="0 0 162.89 56.62"><defs><style>.cls-1{fill:#ae619b;}.cls-1,.cls-10,.cls-11,.cls-12,.cls-13,.cls-2,.cls-3,.cls-4,.cls-5,.cls-6,.cls-7,.cls-8,.cls-9{fill-rule:evenodd;}.cls-2{fill:#006a6b;}.cls-3{fill:#eb2130;}.cls-4{fill:#00aa85;}.cls-5{fill:#008a8f;}.cls-6{fill:#c12632;}.cls-7{fill:#9f4388;}.cls-8{fill:#d5c540;}.cls-9{fill:#98b449;}.cls-10{fill:#3da150;}.cls-11{fill:#83242a;}.cls-12{fill:#98272e;}.cls-13{fill:#fff;}</style></defs><title>main-logo</title><g id="Capa_2" data-name="Capa 2"><g id="Capa_1-2" data-name="Capa 1"><g id="Grupo_1203" data-name="Grupo 1203"><g id="Grupo_1190" data-name="Grupo 1190"><path id="Trazado_329" data-name="Trazado 329" class="cls-1" d="M159,8.71c-1.4-3-3.11-5.27-5-6.23A17.24,17.24,0,0,0,149.78,1a52.17,52.17,0,0,1,2.69,7.87c2.19-.12,4.38-.19,6.52-.2Z"/><path id="Trazado_330" data-name="Trazado 330" class="cls-2" d="M145.7,40.11a88.69,88.69,0,0,1-17.34,7c-2.19.68-4.46,1.32-6.75,1.91a37.51,37.51,0,0,0,7.78-.33A70.17,70.17,0,0,0,154.22,40c-2.83.14-5.73.17-8.52.1Z"/><path id="Trazado_331" data-name="Trazado 331" class="cls-3" d="M161.15,34.29c3.22-4.45,1.66-17.5-2.16-25.58-2.14,0-4.33.08-6.53.2,2.06,8.12,2.34,17.68-2.77,24.22a10.1,10.1,0,0,1-1,4.55,9.56,9.56,0,0,1-3,2.43c2.78.06,5.69,0,8.52-.1a24,24,0,0,0,6.93-5.72Z"/><path id="Trazado_332" data-name="Trazado 332" class="cls-4" d="M123.87,37.63a157.78,157.78,0,0,1-16.42-.08c1.71,4.23,3.94,7.7,6.52,9.35A16.93,16.93,0,0,0,121.61,49c2.29-.59,4.56-1.23,6.75-1.91a51.24,51.24,0,0,1-4.49-9.5Z"/><path id="Trazado_333" data-name="Trazado 333" class="cls-5" d="M129.17,37.32c-1.71.13-3.49.23-5.3.31a51.55,51.55,0,0,0,4.49,9.5,88.11,88.11,0,0,0,17.34-7c-7.81-.19-14.66-1.16-16.26-2.54l-.27-.24Z"/><path id="Trazado_334" data-name="Trazado 334" class="cls-6" d="M148.7,37.68a10.24,10.24,0,0,0,1-4.55l-.12.15c-1.24,1.55-9.69,3.23-20.41,4l.27.24C131,39,137.89,39.91,145.7,40.1a9.43,9.43,0,0,0,3-2.43Z"/><path id="Trazado_335" data-name="Trazado 335" class="cls-7" d="M149.78,1C142.4-.62,130.22-.28,120.35,2A43.46,43.46,0,0,0,111.08,5c3-.23,6.19-.32,9.28-.29,8.83.09,17.25,1.19,21.79,3.2a5.7,5.7,0,0,1,2,1.67c2.71-.31,5.51-.55,8.31-.7A52.17,52.17,0,0,0,149.78,1Z"/><path id="Trazado_336" data-name="Trazado 336" class="cls-8" d="M121.7,18a93.26,93.26,0,0,1-1.34-13.23c-3.09,0-6.24.06-9.28.29a14,14,0,0,0-5.41,4.1c-3.42,4.82-2.18,18.65,1.78,28.42a160.6,160.6,0,0,0,16.42.09c-2.68-7.48-3.78-15.38-2.17-19.67Z"/><path id="Trazado_337" data-name="Trazado 337" class="cls-9" d="M144.16,9.61a5.81,5.81,0,0,0-2-1.67c-4.54-2-13-3.11-21.79-3.2A93.12,93.12,0,0,0,121.7,18a5.83,5.83,0,0,1,1-1.83c2.72-3.15,11.45-5.36,21.41-6.52Z"/><path id="Trazado_338" data-name="Trazado 338" class="cls-10" d="M121.7,18c-1.61,4.29-.51,12.19,2.18,19.67,1.81-.08,3.58-.18,5.3-.31C125.57,33.91,123.09,26,121.7,18Z"/><path id="Trazado_339" data-name="Trazado 339" class="cls-11" d="M153.33,13.19c-.23-1.46-.53-2.88-.88-4.27-2.8.15-5.6.38-8.31.7a19.85,19.85,0,0,1,3,5.91,24.26,24.26,0,0,1,4.42-2.12A4.87,4.87,0,0,1,153.33,13.19Z"/><path id="Trazado_340" data-name="Trazado 340" class="cls-12" d="M149.69,33.14c4.22-5.42,4.75-12.92,3.64-20a4.87,4.87,0,0,0-1.82.22,24.26,24.26,0,0,0-4.42,2.12A53.38,53.38,0,0,1,149.69,33.14Z"/></g><g id="Grupo_1191" data-name="Grupo 1191"><path id="Trazado_341" data-name="Trazado 341" class="cls-13" d="M23.05,44.24c-.2,7.25,5,8.91,7.51,8.91A11.88,11.88,0,0,0,37,50.65c.83-.62.93-.72,1.24-.72s.47,2,.47,2.24c0,.78-1.14,1.51-1.92,2a13.35,13.35,0,0,1-7.56,2.4A11.29,11.29,0,0,1,17.92,45.49a12.31,12.31,0,0,1,12.59-12c1.09,0,5.7.06,7.77,4.49a11.23,11.23,0,0,1,1,4.53c0,1.57-.16,1.83-2.07,1.83-1.3,0-7-.11-8.09-.11ZM30.2,36a7.32,7.32,0,0,0-6.63,5.47c1.45.05,10.15-.06,11.55-.16,0-.94-.36-5.32-4.92-5.32Z"/><path id="Trazado_342" data-name="Trazado 342" class="cls-13" d="M48.25,37.49a6.2,6.2,0,0,1,3-3.11,11.39,11.39,0,0,1,4.09-1c.52,0,.73,0,.73,2.38,0,1.21-.26,1.26-2.95,1.79-4.25.79-4.41,3.17-4.56,4.86-.26,3.38-.31,5.55-.37,11.14-.05,1.91-.05,2.11-.72,2.22a17.41,17.41,0,0,1-2.28.11c-1.66,0-1.92,0-1.92-1.38,0-6.07.37-19.43.47-20s.26-.42,1.5-.42c.36,0,2-.11,2.33-.11.67,0,.67.48.67,1.48v2Z"/><path id="Trazado_343" data-name="Trazado 343" class="cls-13" d="M64,37.49a6.14,6.14,0,0,1,3-3.11,11.39,11.39,0,0,1,4.1-1c.51,0,.72,0,.72,2.38,0,1.21-.26,1.26-3,1.79-4.25.79-4.4,3.17-4.56,4.86C64.06,45.78,64,48,64,53.54c-.06,1.91-.06,2.11-.73,2.22a17.41,17.41,0,0,1-2.28.11c-1.66,0-1.91,0-1.91-1.38,0-6.07.36-19.43.46-20s.26-.42,1.5-.42c.37,0,2-.11,2.33-.11.68,0,.68.48.68,1.48v2Z"/><path id="Trazado_344" data-name="Trazado 344" class="cls-13" d="M17.16,53.93a5.11,5.11,0,0,0-.39-1.26c-.15-.32-.4-.29-.83-.08a7.22,7.22,0,0,1-3.48,1c-3.46,0-4.33-2.44-4.41-6.64-.05-2.61.18-5.78.44-9,2.85-.1,5.7-.19,7-.2.32,0,.61-.18.65-.69s.06-1.27.06-1.74c0-.68-.07-.93-.67-.93-1.07,0-3.89.14-6.77.31.17-1.74.41-4.15.44-4.8s-.13-1-1-.86a29.29,29.29,0,0,0-2.92.8c-1,.34-1.09.55-1.23,2.25-.06.82-.16,1.82-.28,2.92-1.1.07-2,.13-2.36.17-.62.05-1,.1-1.09.65A8.65,8.65,0,0,0,0,37.48c0,.46.19.8,1,.74l2.41-.12a83.06,83.06,0,0,0-.55,8.49c0,6.26,2.3,9.66,7.29,10a10.3,10.3,0,0,0,6.45-1.65c.45-.32.65-.61.58-1Z"/><path id="Trazado_345" data-name="Trazado 345" class="cls-13" d="M78.84,36.8c-1.15,0-2.2.31-2.93.31s-1-1.78-1-2.19c0-.63.52-1.47,5-1.47,4.28,0,7.2,1.42,8.82,3.24,1.94,2.14,2.46,4.81,2.46,9.14,0,1.72,0,4.92-.21,7.28,0,.36-.05,1.1-1.15,1.17-.42,0-2.26,0-2.66.06C86,54.58,86,55,83.38,55.8a13.73,13.73,0,0,1-4.49.79A7.48,7.48,0,0,1,74,55.12a5,5,0,0,1-1.83-3.91c0-4.13,4.38-7,9.19-7.63a36.6,36.6,0,0,1,4.91-.21c0-1.72-.1-6.57-7.47-6.57Zm-1.78,14c0,1.57,1.2,2.72,3.55,2.72a14.69,14.69,0,0,0,5.48-1.47c.11-1.46.16-5,.16-6.52-6.53.78-9.19,2.92-9.19,5.27Z"/></g></g></g></g></svg>